<?xml version="1.0" standalone="no"?>
<!DOCTYPE svg PUBLIC "-//W3C//DTD SVG 20010904//EN"
 "http://www.w3.org/TR/2001/REC-SVG-20010904/DTD/svg10.dtd">
<svg version="1.0" xmlns="http://www.w3.org/2000/svg"
 width="3301.000000pt" height="4000.000000pt" viewBox="0 0 3301.000000 4000.000000"
 preserveAspectRatio="xMidYMid meet">

<g transform="translate(0.000000,4000.000000) scale(0.100000,-0.100000)"
fill="#000000" stroke="none">
<path d="M16322 39976 c-73 -35 -153 -115 -227 -226 -61 -92 -265 -478 -797
-1510 -876 -1699 -1906 -3756 -2651 -5295 -1074 -2220 -1968 -4183 -2561
-5623 -459 -1115 -1375 -3402 -1898 -4737 -384 -982 -1092 -2843 -1224 -3218
l-27 -79 -156 -115 c-288 -214 -505 -395 -821 -687 -325 -300 -422 -379 -665
-542 -248 -167 -363 -233 -1185 -679 -1295 -703 -1733 -971 -2495 -1530 -1268
-928 -1494 -1122 -1587 -1353 -19 -49 -22 -75 -22 -182 0 -159 19 -234 147
-586 154 -421 175 -467 394 -868 256 -468 540 -906 1035 -1599 l198 -277 -26
-40 c-46 -69 -65 -158 -71 -331 -12 -316 35 -601 129 -799 53 -111 147 -206
266 -269 160 -86 164 -126 44 -546 -64 -225 -102 -401 -127 -585 -21 -158 -30
-498 -16 -639 6 -63 10 -116 8 -117 -1 -1 -99 -7 -217 -13 -349 -19 -614 -53
-813 -105 -246 -64 -506 -139 -575 -166 -181 -70 -259 -164 -277 -331 -8 -82
19 -374 45 -475 54 -209 182 -356 483 -552 307 -200 450 -296 547 -365 180
-131 267 -163 600 -223 107 -19 296 -58 420 -85 431 -96 641 -121 824 -99 170
20 303 73 428 168 l64 49 -13 -116 c-75 -682 -81 -1035 -33 -1721 77 -1096
166 -1379 677 -2158 219 -334 426 -537 720 -708 299 -173 664 -272 1119 -304
657 -46 1513 237 2859 943 297 155 1034 554 1200 650 77 44 235 137 350 207
116 70 341 206 500 302 1048 634 1685 923 2450 1113 353 88 562 119 1440 209
699 73 1011 95 1460 103 1087 19 1811 -125 3555 -706 1146 -382 1744 -680
2480 -1232 310 -233 428 -335 857 -743 285 -271 553 -489 830 -674 523 -350
885 -463 1608 -503 783 -44 1281 96 1710 478 452 404 866 1216 1175 2308 175
618 315 1378 335 1815 3 69 8 140 11 158 l5 33 82 -46 c261 -146 732 -361 914
-418 234 -74 397 -58 672 66 222 101 348 189 588 408 200 183 306 271 524 434
601 452 1219 1009 1355 1221 101 157 80 290 -66 427 -122 116 -279 213 -425
265 -193 68 -522 135 -822 168 l-63 7 0 36 c0 20 -5 110 -10 201 -28 441 -101
862 -186 1068 -95 230 -283 485 -496 671 l-95 84 33 82 c121 300 236 726 263
977 24 214 8 538 -38 788 l-19 105 22 25 c13 14 286 318 607 675 838 931 922
1032 1101 1300 196 294 237 429 188 619 -44 173 -175 365 -595 871 -170 205
-515 547 -935 926 -174 157 -893 783 -1045 910 -329 275 -1331 1064 -2050
1614 -389 297 -333 237 -620 669 -139 210 -279 410 -311 445 -73 80 -166 148
-367 270 -86 52 -220 143 -299 203 -79 60 -192 146 -253 192 -136 103 -285
195 -456 284 l-132 67 -118 350 c-611 1795 -1158 3211 -2067 5340 -1388 3254
-1906 4392 -3152 6925 -1040 2117 -1829 3545 -3201 5795 -168 275 -345 566
-395 648 -174 288 -305 447 -409 497 -73 35 -147 37 -213 6z m-1327 -14810
c277 -46 499 -156 658 -326 163 -174 223 -340 214 -590 -5 -147 -28 -245 -89
-384 -282 -643 -1152 -1138 -1938 -1102 -487 22 -847 216 -1006 541 -62 129
-78 203 -78 365 1 172 29 283 113 455 79 160 162 275 301 416 348 352 844 586
1355 639 117 12 356 4 470 -14z m8848 -3166 c122 -12 227 -22 232 -24 6 -2 16
-19 22 -37 6 -19 61 -171 122 -337 638 -1739 1194 -3534 1655 -5342 91 -358
631 -2586 741 -3060 156 -674 484 -2164 539 -2450 305 -1595 505 -3901 483
-5575 -7 -475 -14 -596 -53 -865 -148 -1023 -508 -2130 -875 -2690 -113 -174
-242 -302 -359 -358 -159 -77 -331 -97 -680 -81 -568 25 -774 97 -1200 415
-212 158 -342 270 -600 517 -439 418 -702 635 -1157 954 -785 551 -1565 906
-2946 1342 -1030 326 -1513 451 -2057 535 -445 69 -671 87 -1181 93 -669 8
-1065 -17 -2229 -143 -776 -83 -1093 -142 -1611 -300 -739 -224 -1415 -547
-2424 -1159 -748 -454 -838 -505 -1565 -897 -1014 -547 -1719 -860 -2197 -977
-177 -43 -285 -55 -431 -48 -374 19 -635 113 -797 289 -62 67 -269 374 -363
538 -185 325 -220 503 -283 1435 -35 524 -18 872 82 1670 217 1736 829 4825
1576 7960 316 1329 811 2888 1625 5125 318 873 1053 2818 1072 2837 3 4 888
132 1077 156 l46 6 7 -112 c43 -698 244 -1433 570 -2085 201 -402 451 -779
762 -1153 141 -170 510 -544 674 -685 829 -712 1775 -1202 2856 -1479 926
-238 1943 -294 2914 -159 916 127 1797 423 2578 867 1599 910 2689 2369 3011
4027 66 339 93 632 95 1002 l1 268 23 0 c13 0 123 -9 245 -20z m4382 -4443
c312 -208 547 -372 765 -535 182 -134 217 -167 515 -466 477 -478 1132 -1167
1382 -1451 134 -153 191 -233 347 -495 223 -372 366 -695 366 -827 0 -121 -76
-224 -363 -491 -384 -359 -515 -526 -846 -1083 -51 -86 -115 -183 -141 -217
-72 -88 -99 -98 -320 -117 -102 -8 -225 -22 -275 -30 -359 -57 -636 -204 -774
-410 -77 -116 -94 -169 -98 -310 l-3 -120 -132 -6 c-73 -4 -181 -7 -239 -8
l-106 -1 -12 68 c-19 107 -71 346 -247 1142 -256 1157 -291 1307 -649 2785
-108 446 -197 817 -197 825 -1 8 20 53 47 100 66 117 221 429 288 580 144 328
389 1010 431 1203 8 35 -7 42 261 -136z m-22877 -739 c72 -156 196 -426 275
-602 l143 -319 -108 -351 c-128 -415 -270 -908 -367 -1276 -133 -504 -432
-1792 -681 -2936 -55 -253 -102 -469 -105 -482 -5 -21 -17 -9 -93 91 -119 157
-283 347 -351 408 -132 118 -448 298 -631 360 -69 23 -114 32 -165 33 -68 1
-72 0 -161 -56 -118 -73 -373 -201 -389 -195 -21 9 -999 1554 -1256 1987 -186
313 -201 337 -276 428 -80 98 -113 149 -113 178 0 32 55 107 118 161 31 26
174 162 317 302 425 416 653 610 1045 890 421 300 1256 848 1760 1153 297 180
874 507 896 508 6 0 70 -127 142 -282z"/>
</g>
</svg>
